HIERARCHY
ROOT Hips
{
	OFFSET -35.298439 92.216103 -74.654198
	CHANNELS 6 Xposition Yposition Zposition Zrotation Yrotation Xrotation 
	JOINT LeftUpLeg
	{
		OFFSET 0.103462 1.857831 10.548502
		CHANNELS 3 Xrotation Yrotation Zrotation
		JOINT LeftLeg
		{
			OFFSET 43.500008 -0.000027 -0.000004
			CHANNELS 3 Xrotation Yrotation Zrotation
			JOINT LeftFoot
			{
				OFFSET 42.372200 0.000011 -0.000002
				CHANNELS 3 Xrotation Yrotation Zrotation
				JOINT LeftToe
				{
					OFFSET 17.299999 -0.000001 -0.000002
					CHANNELS 3 Xrotation Yrotation Zrotation
					End Site
					{
						OFFSET 0.000000 0.000000 0.000000
					}
				}
			}
		}
	}
	JOINT RightUpLeg
	{
		OFFSET 0.103458 1.857828 -10.548501
		CHANNELS 3 Xrotation Yrotation Zrotation
		JOINT RightLeg
		{
			OFFSET 43.500038 -0.000031 0.000011
			CHANNELS 3 Xrotation Yrotation Zrotation
			JOINT RightFoot
			{
				OFFSET 42.372257 -0.000004 0.000010
				CHANNELS 3 Xrotation Yrotation Zrotation
				JOINT RightToe
				{
					OFFSET 17.299994 -0.000005 0.000004
					CHANNELS 3 Xrotation Yrotation Zrotation
					End Site
					{
						OFFSET 0.000000 0.000000 0.000000
					}
				}
			}
		}
	}
	JOINT Spine
	{
		OFFSET 6.901966 -2.603733 0.000000
		CHANNELS 3 Xrotation Yrotation Zrotation
		JOINT Spine1
		{
			OFFSET 12.588101 0.000002 0.000000
			CHANNELS 3 Xrotation Yrotation Zrotation
			JOINT Spine2
			{
				OFFSET 12.343201 0.000004 -0.000002
				CHANNELS 3 Xrotation Yrotation Zrotation
				JOINT Neck
				{
					OFFSET 25.832895 -0.000004 0.000002
					CHANNELS 3 Xrotation Yrotation Zrotation
					JOINT Head
					{
						OFFSET 11.766604 0.000011 0.000001
						CHANNELS 3 Xrotation Yrotation Zrotation
						End Site
						{
							OFFSET 0.000000 0.000000 0.000000
						}
					}
				}
				JOINT LeftShoulder
				{
					OFFSET 19.745903 -1.480368 6.000108
					CHANNELS 3 Xrotation Yrotation Zrotation
					JOINT LeftArm
					{
						OFFSET 11.284126 -0.000007 -0.000022
						CHANNELS 3 Xrotation Yrotation Zrotation
						JOINT LeftForeArm
						{
							OFFSET 33.000053 0.000001 0.000028
							CHANNELS 3 Xrotation Yrotation Zrotation
							JOINT LeftHand
							{
								OFFSET 25.200005 0.000019 0.000013
								CHANNELS 3 Xrotation Yrotation Zrotation
								End Site
								{
									OFFSET 0.000000 0.000000 0.000000
								}
							}
						}
					}
				}
				JOINT RightShoulder
				{
					OFFSET 19.746094 -1.480373 -6.000072
					CHANNELS 3 Xrotation Yrotation Zrotation
					JOINT RightArm
					{
						OFFSET 11.284138 -0.000017 -0.000010
						CHANNELS 3 Xrotation Yrotation Zrotation
						JOINT RightForeArm
						{
							OFFSET 33.000092 0.000013 0.000009
							CHANNELS 3 Xrotation Yrotation Zrotation
							JOINT RightHand
							{
								OFFSET 25.199776 0.000139 0.000415
								CHANNELS 3 Xrotation Yrotation Zrotation
								End Site
								{
									OFFSET 0.000000 0.000000 0.000000
								}
							}
						}
					}
				}
			}
		}
	}
}
MOTION
Frames: 14
Frame Time: 0.033333
-25.196609 87.707550 90.336327 87.923236 -6.312908 -141.030197 170.561872 -9.773607 168.760013 -22.658832 -4.035423 -5.561208 74.181243 0.722505 -11.230148 21.454558 0.003112 0.000018 150.263369 14.096100 176.816959 -54.589095 0.474929 10.787658 77.803170 -5.719727 7.490527 21.454550 -0.003089 -0.000000 11.420173 -1.213212 -2.393910 12.876087 -2.152055 -4.908886 12.559012 -2.181759 -4.895847 9.397728 3.576076 -1.107253 -6.371600 -4.753189 0.434435 174.518778 -73.926614 4.198700 -55.540756 44.177103 20.905266 -52.559159 -15.960269 1.929462 2.291809 0.184506 20.509185 155.604345 80.688392 -23.146126 -10.654830 -44.709295 -28.587443 -28.598292 10.625243 -0.921166 12.443804 -3.332995 -56.253646 
-23.639481 87.277496 93.089043 87.602019 -6.015112 -143.921102 172.675488 -11.742490 169.060528 -18.262604 -4.616253 -7.444023 71.494998 1.106366 -13.525669 21.454553 0.003121 0.000018 154.325693 17.629393 176.775842 -51.447099 -1.026284 11.458573 77.654074 -6.468056 6.241479 21.454558 -0.003095 0.000004 10.719594 -1.285798 -2.031934 11.472071 -2.363528 -4.182291 11.154581 -2.388860 -4.167976 8.934973 4.808749 -0.166059 -5.677292 -6.125982 1.859960 177.718695 -72.837335 0.943430 -50.063449 46.043357 22.562381 -46.651814 -16.101469 1.747791 3.712961 1.235425 19.430181 157.996305 80.249334 -20.746925 -13.151987 -45.611016 -22.348101 -33.189054 11.840463 -1.090327 9.338770 0.383293 -48.832379 
-21.841339 86.530670 96.129028 87.658942 -5.316207 -146.700306 174.695393 -14.756106 168.848970 -14.771824 -5.159824 -8.866689 69.292365 1.104672 -15.904599 21.454562 0.003093 0.000017 158.787910 19.968992 178.426165 -47.130252 -2.740434 12.444955 77.398037 -6.887261 7.124858 21.454553 -0.003092 -0.000001 10.114530 -1.181998 -1.619852 10.250510 -2.215715 -3.338666 9.932755 -2.235961 -3.325246 8.468981 5.541458 0.714753 -5.578837 -6.964559 3.068063 -179.362803 -71.569604 -2.031496 -43.656920 47.279871 23.469795 -41.296577 -15.939776 1.581824 5.013720 1.338099 18.915811 160.367323 80.597926 -18.329197 -14.296843 -47.323758 -19.389416 -41.996347 13.270376 -1.397810 7.431068 2.587790 -40.695712 
-19.898979 85.666962 99.663452 88.279328 -3.704966 -149.887805 175.646224 -19.412007 167.407622 -14.266163 -5.208289 -9.491089 68.332115 0.510803 -18.613507 21.454562 0.003099 0.000015 162.550074 19.986098 -179.421488 -43.633516 -3.634014 9.991763 79.779362 -2.920131 16.829671 21.454550 -0.003091 -0.000001 9.685528 -0.934278 -1.102641 9.377015 -1.776085 -2.277584 9.059027 -1.789941 -2.266831 7.535048 6.761441 1.712722 -5.339676 -7.807549 4.466312 -174.680490 -70.441319 -6.838824 -37.239240 47.775445 22.660527 -36.785432 -15.903892 1.462923 6.061270 0.881363 18.455521 164.439878 80.190109 -14.220563 -14.717183 -48.544706 -17.514150 -53.768800 13.893937 -1.801299 5.068568 3.664308 -35.296983 
-17.882099 85.099792 103.376900 89.808989 -0.743507 -152.285597 176.003989 -25.235792 166.746692 -14.921829 -4.024602 -10.106820 67.376230 -0.352449 -21.907333 21.454558 0.003123 0.000019 165.326013 17.490806 -176.736404 -40.140062 -0.323270 5.175860 86.442683 0.021088 19.584442 21.454553 -0.003091 0.000000 9.572848 -0.338758 -0.740348 9.137035 -0.617963 -1.505118 8.819040 -0.627177 -1.501367 6.460303 8.748869 2.878153 -5.486577 -9.352577 6.359064 -172.219614 -69.477395 -9.370976 -29.814011 47.441920 19.232242 -33.697490 -15.652120 1.374829 6.975679 -1.778587 16.784129 169.678291 79.173599 -8.942017 -16.268216 -49.779259 -13.790484 -66.298413 12.964545 -2.201418 1.350486 3.787148 -36.718475 
-15.885410 84.547981 107.346802 91.847644 3.060941 -153.278106 173.303770 -31.324006 166.529752 -19.560980 -0.711516 -10.147771 68.764767 0.873163 -19.091282 21.454562 0.003103 0.000017 164.474206 14.591004 -170.680813 -43.399350 3.935936 1.323515 88.029951 1.227093 12.822770 21.454551 -0.003092 -0.000000 9.763185 0.593920 -0.625215 9.507613 1.237218 -1.199569 9.189512 1.229816 -1.207028 6.023434 11.144901 4.130193 -6.790720 -11.347192 8.617884 -171.259508 -68.965936 -10.360573 -23.271431 47.135999 14.198823 -31.458393 -15.475098 1.315577 8.168909 -5.994973 11.443432 173.485726 77.982578 -5.106195 -19.219215 -50.716904 -7.622654 -78.543091 9.624288 -2.476828 -1.513478 3.855224 -39.748214 
-14.086870 83.869270 110.949799 93.724716 4.894599 -153.756998 168.016397 -33.203202 171.083630 -28.283173 3.525342 -14.449955 74.148581 9.167589 -3.465860 21.454562 0.003090 0.000010 164.624962 11.674506 -167.605001 -46.382770 5.863154 -0.574124 90.154262 1.554553 8.307274 21.454557 -0.003094 -0.000000 10.225746 1.213495 -0.821907 10.424427 2.496112 -1.531402 10.106120 2.486687 -1.546463 7.373146 12.925191 5.392340 -7.399006 -12.362642 10.330349 -170.537898 -69.607571 -11.107736 -17.664377 48.459898 9.306715 -29.138386 -15.763571 1.288220 9.919337 -10.014578 2.071939 172.235610 77.422216 -6.395100 -23.455455 -51.762722 0.189370 -89.380566 4.642479 -2.602354 -2.723373 4.472852 -33.382440 
-12.251140 83.795647 113.528801 95.281002 3.442978 -154.096895 165.029050 -29.975211 178.679101 -37.500532 4.646996 -19.488000 78.263647 12.985618 -2.231151 21.454555 0.003111 0.000020 166.042227 9.494795 -166.149105 -48.093978 3.476016 -0.562727 92.152701 1.290366 7.129824 21.454551 -0.003092 -0.000000 10.895469 1.017057 -1.081075 11.760894 2.138797 -2.053358 11.442782 2.126221 -2.066242 9.133606 14.524121 6.310142 -6.233078 -11.214890 10.789523 -167.340386 -71.168201 -14.403962 -14.568198 49.960153 5.461518 -27.142905 -15.299841 1.222353 14.052817 -12.893073 -9.270028 171.066350 77.002098 -7.599196 -29.351727 -53.568607 7.327038 -98.423081 1.901601 -2.812568 -2.813979 5.096807 -22.191310 
-10.467640 84.281761 115.754501 96.231232 2.024642 -155.599591 162.737180 -26.690702 -177.935007 -46.444856 3.308241 -16.762297 78.041564 11.111631 -2.282257 21.454555 0.003109 0.000017 167.181639 5.722396 -172.468014 -47.754080 3.406912 3.137914 92.812900 -1.227797 7.562037 21.454553 -0.003093 -0.000000 11.314702 0.788115 -0.838030 12.606347 1.662933 -1.585220 12.288239 1.653194 -1.595241 11.678214 14.839691 6.431646 -5.182422 -11.351739 10.552951 -167.909505 -71.518207 -13.817174 -11.886267 49.999584 4.277095 -25.616090 -14.901458 1.171262 17.725772 -12.033811 -17.538551 172.058544 76.994031 -6.588103 -35.832723 -54.818255 13.066741 -105.451407 0.629148 -3.034419 -3.673967 6.796931 -12.560873 
-8.657892 85.266808 117.469704 96.818662 0.649056 -156.744795 160.728353 -22.481400 -176.885767 -53.161558 1.631712 -10.751887 77.905261 7.113773 -1.603858 21.454550 0.003112 0.000023 169.606561 2.944596 -176.268126 -45.364460 2.653841 5.718566 92.303197 -2.949703 7.509066 21.454548 -0.003091 0.000000 11.581078 0.683535 -0.577424 13.143602 1.428314 -1.073411 12.825483 1.421671 -1.082027 13.885479 13.824769 6.339991 -4.700695 -10.490942 9.872850 -166.997688 -71.339755 -14.756255 -9.488696 50.459682 6.472842 -25.810335 -15.028561 1.182529 18.889136 -11.018500 -18.350471 171.222310 78.167622 -7.404395 -42.005390 -56.304702 19.081228 -111.786913 -0.490288 -3.231249 -3.406835 8.233370 -6.579308 
-6.947050 86.472511 118.913696 96.072731 -0.071609 -157.091100 157.422528 -17.395911 -176.194975 -57.284960 -0.509337 -5.611537 76.989763 3.652110 -1.215200 21.454563 0.003106 0.000015 171.629731 2.145797 -176.204442 -41.668378 2.426049 6.089363 91.346725 -3.328245 6.178083 21.454553 -0.003092 -0.000000 11.369449 0.679757 -0.297900 12.723816 1.388183 -0.519176 12.405633 1.384890 -0.527560 16.044645 13.472517 5.737795 -3.928160 -10.491520 8.917229 -165.657004 -70.988977 -16.138470 -6.733130 51.168342 10.962816 -26.891969 -15.437870 1.226804 17.322540 -10.296632 -13.994253 170.246099 79.100913 -8.367596 -46.150915 -57.039227 23.305140 -116.979612 -1.274103 -3.395880 -2.671044 9.017613 -1.760741 
-5.250794 87.549377 120.414001 94.815327 0.113555 -157.696309 153.834042 -12.911195 -178.348725 -58.725509 -1.186074 -2.619615 75.779692 1.269044 -2.202075 21.454558 0.003101 0.000018 173.042638 1.263107 -175.080370 -37.545963 2.468269 5.555409 90.214450 -3.188478 4.336135 21.454551 -0.003092 -0.000000 10.946757 0.797491 0.258075 11.885847 1.564232 0.596827 11.567623 1.567672 0.587359 17.070859 13.247962 4.731866 -3.056333 -10.297819 7.622121 -165.272410 -70.777145 -16.536013 -3.563876 52.076251 16.480861 -28.964069 -15.660061 1.278320 13.764635 -9.341615 -6.939625 172.630012 80.016602 -5.919301 -49.128219 -57.219462 26.343763 -120.954386 -1.869990 -3.517350 -1.682145 9.456728 2.923137 
-3.487186 88.425049 121.930901 93.497879 0.548125 -158.735700 151.076107 -8.945804 178.040779 -57.245328 -1.534235 -2.287390 74.773571 0.743858 -3.209060 21.454558 0.003113 0.000016 174.372366 0.046493 -174.481185 -33.293480 2.573450 4.995721 89.059916 -3.072378 2.492486 21.454553 -0.003092 -0.000000 10.538161 0.879826 0.818192 11.077250 1.677239 1.717064 10.759181 1.687446 1.706895 17.324327 13.265956 3.971912 -2.997782 -10.423561 6.829940 -163.863820 -70.753568 -17.987489 0.391607 53.301738 22.107799 -32.218542 -16.255483 1.381543 10.442065 -7.336080 -0.399698 171.548998 80.570414 -6.999668 -51.593938 -56.603827 28.983826 -124.367500 -2.217953 -3.628850 0.505220 9.460999 6.391254 
-1.616279 89.053207 123.460999 92.680066 1.082945 -159.886997 149.440250 -5.592100 173.941586 -53.237752 -1.504457 -3.271661 73.903384 1.258167 -3.823890 21.454548 0.003110 0.000019 176.282114 -1.802797 -174.576165 -28.845105 2.405412 4.768961 87.864107 -3.171875 0.906926 21.454550 -0.003092 -0.000000 10.293277 1.008840 1.289236 10.597284 1.895328 2.665814 10.279354 1.911249 2.654321 17.200416 13.091701 3.196214 -3.848231 -10.754678 6.199208 -162.387993 -70.575225 -19.510038 5.103814 54.664664 27.381095 -35.977878 -17.259620 1.531095 6.895512 -3.702177 6.452499 167.869931 81.423935 -10.699172 -54.493486 -55.431606 31.757921 -126.470201 -2.385787 -3.698623 2.832323 8.848680 8.269556 
